# xmcd
#
# Track frame offsets: 
#        150
#        18376
#        34436
#        55437
#        78384
#        103875
#        122808
#        138587
#        156356
#
# Disc length: 2360 seconds
#
# Revision: 0
# Processed by: cddbd v1.5.2PL0 Copyright (c) Steve Scherf et al.
# Submitted via: ExactAudioCopy v1.0b4
#
DISCID=80093609
DTITLE=Marty D. Spikener's On Call Band - Help! I Need Some Good Blues
DTITLE=!
DYEAR=2016
DGENRE=Blues
TTITLE0=Ain't That Loving You
TTITLE1=Born In Chicago
TTITLE2=Feels Like Rain
TTITLE3=Good Blues
TTITLE4=Guns Of St. Louis
TTITLE5=Lord Help Me To Hold Out
TTITLE6=Pill For That
TTITLE7=Tall Skinny Woman
TTITLE8=Walkin' With Grover
EXTD=
EXTT0=
EXTT1=
EXTT2=
EXTT3=
EXTT4=
EXTT5=
EXTT6=
EXTT7=
EXTT8=
PLAYORDER=
